<?xml version="1.0" encoding="UTF-8" standalone="no"?>
<svg
   xmlns:dc="http://purl.org/dc/elements/1.1/"
   xmlns:cc="http://creativecommons.org/ns#"
   xmlns:rdf="http://www.w3.org/1999/02/22-rdf-syntax-ns#"
   xmlns:svg="http://www.w3.org/2000/svg"
   xmlns="http://www.w3.org/2000/svg"
   xmlns:sodipodi="http://sodipodi.sourceforge.net/DTD/sodipodi-0.dtd"
   xmlns:inkscape="http://www.inkscape.org/namespaces/inkscape"
   version="1.0"
   width="512.000000pt"
   height="512.000000pt"
   viewBox="0 0 512.000000 512.000000"
   preserveAspectRatio="xMidYMid meet"
   id="svg6"
   sodipodi:docname="shopping-cart.svg"
   inkscape:version="1.0.2 (e86c870879, 2021-01-15, custom)"
   inkscape:export-filename="C:\Projetos\senai-versoes-colaboracoes\images\shopping-cart.png"
   inkscape:export-xdpi="96"
   inkscape:export-ydpi="96">
  <metadata
     id="metadata12">
    <rdf:RDF>
      <cc:Work
         rdf:about="">
        <dc:format>image/svg+xml</dc:format>
        <dc:type
           rdf:resource="http://purl.org/dc/dcmitype/StillImage" />
      </cc:Work>
    </rdf:RDF>
  </metadata>
  <defs
     id="defs10" />
  <sodipodi:namedview
     pagecolor="#ffffff"
     bordercolor="#666666"
     borderopacity="1"
     objecttolerance="10"
     gridtolerance="10"
     guidetolerance="10"
     inkscape:pageopacity="0"
     inkscape:pageshadow="2"
     inkscape:window-width="1920"
     inkscape:window-height="1017"
     id="namedview8"
     showgrid="false"
     inkscape:zoom="9.9609375"
     inkscape:cx="46.766161"
     inkscape:cy="21.300792"
     inkscape:window-x="-8"
     inkscape:window-y="-8"
     inkscape:window-maximized="1"
     inkscape:current-layer="svg6" />
  <g
     id="g860">
    <circle
       style="fill:#2764ff;stroke-width:0.427743"
       id="path841"
       cx="15"
       cy="14.999999"
       r="15" />
    <g
       transform="matrix(0.00410744,0,0,-0.00460339,4.4908254,26.785)"
       fill="#000000"
       stroke="none"
       id="g845">
      <path
         d="m 70,4818 c -92,-62 -90,-182 4,-252 26,-20 42,-21 351,-24 289,-3 324,-5 338,-20 11,-12 629,-2276 692,-2534 7,-26 5,-28 -23,-28 -47,0 -147,-35 -201,-69 -310,-199 -284,-650 47,-814 l 85,-42 165,-3 c 187,-4 169,8 138,-102 -32,-111 -16,-249 42,-368 36,-76 150,-190 223,-226 170,-82 357,-75 514,19 109,66 185,160 226,282 38,111 31,265 -17,381 -5,9 93,12 466,12 h 472 l -7,-22 c -28,-91 -36,-133 -36,-208 0,-145 50,-266 153,-368 101,-102 223,-152 368,-152 237,0 438,152 505,383 28,97 20,245 -19,337 -14,34 -13,35 15,52 96,59 90,202 -11,255 l -43,23 H 2978 c -1511,0 -1539,0 -1577,20 -114,57 -112,239 2,293 32,16 158,17 1515,17 959,0 1498,4 1533,10 115,22 219,101 268,205 12,26 108,419 213,873 209,910 205,882 153,987 -28,59 -73,103 -138,137 -42,23 -46,23 -592,29 -302,4 -1061,8 -1685,9 -624,1 -1200,5 -1280,9 l -145,6 -91,337 c -49,185 -99,355 -109,379 -28,60 -105,135 -172,167 l -58,27 -355,3 -356,3 z M 1774,3610 h 232 l 42,-322 c 23,-178 42,-331 42,-340 0,-17 -20,-18 -288,-18 h -288 l -88,323 c -48,178 -90,334 -93,347 l -6,23 108,-6 c 59,-4 212,-7 339,-7 z m 1196,-340 v -340 h -285 -284 l -6,33 c -5,32 -85,631 -85,642 0,3 149,5 330,5 h 330 z m 960,323 c -1,-10 -20,-162 -43,-338 l -43,-320 -287,-3 -287,-2 v 340 340 h 330 c 308,0 330,-1 330,-17 z m 885,-15 c -3,-13 -37,-160 -75,-327 -39,-167 -73,-307 -76,-312 -3,-5 -120,-9 -260,-9 -196,0 -254,3 -254,13 0,6 19,157 42,335 l 42,322 h 293 293 z M 2178,2313 c 23,-175 42,-326 42,-335 0,-17 -16,-18 -194,-18 -107,0 -206,4 -220,10 -15,5 -33,24 -41,42 -14,32 -165,586 -165,607 0,8 81,11 268,11 h 268 z m 792,-18 v -335 h -220 -220 l -4,23 c -5,21 -86,628 -86,641 0,3 119,6 265,6 h 265 z m 830,320 c 0,-23 -80,-628 -85,-642 -3,-10 -57,-13 -225,-13 h -220 v 335 335 h 265 c 231,0 265,-2 265,-15 z m 790,2 c 0,-21 -129,-579 -141,-608 -6,-15 -22,-31 -35,-38 -28,-12 -394,-16 -394,-4 0,16 82,639 85,651 6,18 485,18 485,-1 z M 2280,997 c 132,-67 157,-253 47,-355 -54,-49 -102,-65 -178,-60 -79,6 -134,43 -171,117 -102,200 100,399 302,298 z m 1845,22 c 92,-23 166,-118 166,-214 0,-130 -92,-224 -219,-225 -131,0 -221,91 -222,223 0,71 24,121 81,170 59,51 118,65 194,46 z"
         id="path843" />
    </g>
  </g>
</svg>
