<?xml version="1.0" encoding="UTF-8" standalone="no"?>
<svg
   xmlns:dc="http://purl.org/dc/elements/1.1/"
   xmlns:cc="http://creativecommons.org/ns#"
   xmlns:rdf="http://www.w3.org/1999/02/22-rdf-syntax-ns#"
   xmlns:svg="http://www.w3.org/2000/svg"
   xmlns="http://www.w3.org/2000/svg"
   xmlns:sodipodi="http://sodipodi.sourceforge.net/DTD/sodipodi-0.dtd"
   xmlns:inkscape="http://www.inkscape.org/namespaces/inkscape"
   version="1.0"
   width="512.000000pt"
   height="512.000000pt"
   viewBox="0 0 512.000000 512.000000"
   preserveAspectRatio="xMidYMid meet"
   id="svg6"
   sodipodi:docname="headphone.svg"
   inkscape:version="1.0.2 (e86c870879, 2021-01-15, custom)">
  <metadata
     id="metadata12">
    <rdf:RDF>
      <cc:Work
         rdf:about="">
        <dc:format>image/svg+xml</dc:format>
        <dc:type
           rdf:resource="http://purl.org/dc/dcmitype/StillImage" />
      </cc:Work>
    </rdf:RDF>
  </metadata>
  <defs
     id="defs10" />
  <sodipodi:namedview
     pagecolor="#ffffff"
     bordercolor="#666666"
     borderopacity="1"
     objecttolerance="10"
     gridtolerance="10"
     guidetolerance="10"
     inkscape:pageopacity="0"
     inkscape:pageshadow="2"
     inkscape:window-width="1920"
     inkscape:window-height="1017"
     id="namedview8"
     showgrid="false"
     inkscape:zoom="7.0434464"
     inkscape:cx="12.138821"
     inkscape:cy="48.74145"
     inkscape:window-x="-8"
     inkscape:window-y="-8"
     inkscape:window-maximized="1"
     inkscape:current-layer="svg6" />
  <g
     id="g846"
     transform="translate(-5.2949963,-15.955286)"
     inkscape:export-xdpi="96"
     inkscape:export-ydpi="96">
    <circle
       style="fill:#2764ff;fill-opacity:1;fill-rule:evenodd;stroke-width:0.993668"
       id="path14"
       cx="20.294996"
       cy="30.955286"
       r="15" />
    <g
       transform="matrix(0.00439638,0,0,-0.00443392,9.0381976,42.295161)"
       fill="#000000"
       stroke="none"
       id="g841">
      <path
         d="M 2396,5090 C 1654,5024 990,4555 576,3802 349,3388 221,2931 189,2410 l -12,-185 -48,-74 C -136,1743 28,1192 475,989 c 55,-25 116,-43 216,-63 19,-4 28,-14 32,-33 9,-44 62,-109 114,-140 l 48,-28 h 275 275 l 47,28 c 53,31 94,79 114,134 10,31 13,194 14,829 0,893 4,849 -77,929 -67,68 -103,75 -373,75 -270,0 -306,-7 -374,-75 -24,-25 -50,-63 -58,-87 -14,-41 -15,-42 -83,-56 -75,-15 -221,-67 -230,-83 -4,-5 -11,-9 -17,-9 -14,0 -4,127 23,307 50,334 171,697 324,979 l 47,85 26,-18 c 60,-40 248,-144 287,-159 39,-15 46,-15 77,0 18,9 39,26 47,38 7,13 44,66 82,118 272,381 624,631 1000,711 145,31 352,31 496,1 409,-88 774,-363 1068,-804 55,-84 83,-91 182,-43 67,31 172,91 247,141 24,15 25,15 71,-70 181,-333 307,-753 347,-1158 6,-65 9,-121 6,-124 -4,-3 -17,1 -30,10 -37,24 -149,64 -224,79 -67,13 -68,14 -82,55 -8,24 -34,62 -58,87 -68,68 -104,75 -374,75 -268,0 -305,-7 -373,-73 -81,-79 -77,-36 -77,-931 1,-635 4,-798 14,-829 20,-55 61,-103 114,-134 l 47,-28 h 275 275 l 48,28 c 52,31 105,96 114,140 4,19 13,29 32,33 14,3 54,12 88,20 34,8 65,14 68,14 3,0 5,-36 5,-79 0,-172 -67,-286 -210,-355 l -65,-31 h -635 -635 l -6,35 c -8,50 -43,113 -78,143 -67,56 -83,58 -482,55 l -366,-3 -49,-30 c -30,-19 -60,-49 -79,-79 l -30,-49 V 380 193 l 30,-49 c 34,-55 111,-107 172,-118 63,-10 644,-6 693,5 97,22 171,99 191,200 l 12,59 h 611 c 681,0 693,1 825,66 139,69 254,217 286,371 9,40 15,127 15,208 l 1,140 49,39 c 130,103 236,291 269,480 33,183 -14,399 -121,562 l -45,69 -12,185 c -17,277 -51,483 -118,725 -145,518 -404,968 -759,1317 -413,406 -893,621 -1434,642 -69,2 -170,0 -224,-4 z m 304,-200 c 386,-34 727,-174 1050,-430 113,-90 297,-281 393,-408 l 78,-102 -53,-34 c -80,-51 -156,-92 -160,-86 -3,3 -38,50 -79,105 -142,192 -366,402 -545,513 -183,114 -385,194 -574,228 -129,24 -372,24 -500,0 -196,-35 -421,-127 -599,-244 -182,-120 -392,-321 -526,-505 -38,-52 -75,-96 -80,-96 -13,-1 -198,111 -199,120 -2,16 150,205 244,303 307,320 637,512 1032,600 181,41 338,51 518,36 z M 1392,2503 c 17,-15 18,-53 18,-784 0,-684 -2,-769 -16,-783 -13,-14 -49,-16 -234,-16 -185,0 -221,2 -234,16 -14,14 -16,98 -16,781 0,699 1,768 17,785 15,16 36,18 231,18 186,0 218,-2 234,-17 z m 2800,0 c 17,-15 18,-53 18,-784 0,-684 -2,-769 -16,-783 -13,-14 -49,-16 -234,-16 -185,0 -221,2 -234,16 -14,14 -16,98 -16,781 0,699 1,768 17,785 15,16 36,18 231,18 186,0 218,-2 234,-17 z M 710,1720 c 0,-677 13,-609 -104,-566 -97,35 -170,83 -241,158 -222,234 -218,595 9,823 39,39 93,84 121,100 52,30 167,73 198,74 16,1 17,-34 17,-589 z m 3842,550 c 129,-54 242,-160 304,-285 159,-323 2,-707 -342,-831 -117,-43 -104,-111 -104,567 v 591 l 38,-7 c 20,-3 67,-19 104,-35 z M 2830,520 c 12,-7 16,-37 18,-134 5,-182 37,-167 -359,-164 -271,3 -321,5 -329,18 -15,23 -13,263 2,278 15,15 645,17 668,2 z"
         id="path839" />
    </g>
  </g>
</svg>
