<?xml version="1.0" encoding="UTF-8" standalone="no"?>
<svg
   xmlns:dc="http://purl.org/dc/elements/1.1/"
   xmlns:cc="http://creativecommons.org/ns#"
   xmlns:rdf="http://www.w3.org/1999/02/22-rdf-syntax-ns#"
   xmlns:svg="http://www.w3.org/2000/svg"
   xmlns="http://www.w3.org/2000/svg"
   xmlns:sodipodi="http://sodipodi.sourceforge.net/DTD/sodipodi-0.dtd"
   xmlns:inkscape="http://www.inkscape.org/namespaces/inkscape"
   version="1.0"
   width="512.000000pt"
   height="512.000000pt"
   viewBox="0 0 512.000000 512.000000"
   preserveAspectRatio="xMidYMid meet"
   id="svg8"
   sodipodi:docname="user.svg"
   inkscape:version="1.0.2 (e86c870879, 2021-01-15, custom)">
  <metadata
     id="metadata14">
    <rdf:RDF>
      <cc:Work
         rdf:about="">
        <dc:format>image/svg+xml</dc:format>
        <dc:type
           rdf:resource="http://purl.org/dc/dcmitype/StillImage" />
      </cc:Work>
    </rdf:RDF>
  </metadata>
  <defs
     id="defs12" />
  <sodipodi:namedview
     pagecolor="#ffffff"
     bordercolor="#666666"
     borderopacity="1"
     objecttolerance="10"
     gridtolerance="10"
     guidetolerance="10"
     inkscape:pageopacity="0"
     inkscape:pageshadow="2"
     inkscape:window-width="1920"
     inkscape:window-height="1017"
     id="namedview10"
     showgrid="false"
     inkscape:zoom="0.62255859"
     inkscape:cx="5.1916499"
     inkscape:cy="327.19667"
     inkscape:window-x="-8"
     inkscape:window-y="-8"
     inkscape:window-maximized="1"
     inkscape:current-layer="svg8"
     inkscape:document-rotation="0" />
  <g
     id="g839"
     transform="translate(-203.1053,-192.14233)">
    <circle
       style="fill:#2764ff;fill-opacity:1;fill-rule:evenodd;stroke-width:0.0389737"
       id="path16"
       cx="218.1053"
       cy="207.14233"
       r="15"
       inkscape:export-xdpi="96"
       inkscape:export-ydpi="96" />
    <g
       id="g852"
       transform="matrix(0.04912664,0,0,0.0440242,205.52887,195.8811)"
       inkscape:export-xdpi="96"
       inkscape:export-ydpi="96">
      <g
         transform="matrix(0.1,0,0,-0.1,0,512)"
         fill="#000000"
         stroke="none"
         id="g850">
        <path
           d="m 2430,5114 c -318,-41 -573,-161 -793,-373 -487,-469 -539,-1230 -121,-1767 401,-516 1135,-662 1699,-337 498,287 755,845 649,1406 -99,519 -517,941 -1037,1048 -99,20 -318,33 -397,23 z"
           id="path846" />
        <path
           d="M 1490,2350 C 1047,2272 641,1997 388,1604 335,1521 270,1380 270,1347 270,1281 460,1013 640,826 1079,369 1621,97 2245,19 c 130,-17 492,-16 620,0 506,65 956,254 1345,565 121,96 358,341 452,466 105,141 188,275 188,306 0,30 -56,153 -105,229 -171,267 -409,485 -676,618 -195,97 -438,164 -561,155 -42,-3 -70,-13 -110,-38 -144,-91 -190,-116 -270,-151 -199,-87 -402,-125 -618,-116 -276,11 -508,85 -739,237 -50,33 -103,62 -118,66 -16,3 -35,7 -43,9 -8,2 -62,-5 -120,-15 z"
           id="path848" />
      </g>
    </g>
  </g>
</svg>
