<?xml version="1.0" encoding="UTF-8" standalone="no"?>
<svg
   xmlns:dc="http://purl.org/dc/elements/1.1/"
   xmlns:cc="http://creativecommons.org/ns#"
   xmlns:rdf="http://www.w3.org/1999/02/22-rdf-syntax-ns#"
   xmlns:svg="http://www.w3.org/2000/svg"
   xmlns="http://www.w3.org/2000/svg"
   xmlns:sodipodi="http://sodipodi.sourceforge.net/DTD/sodipodi-0.dtd"
   xmlns:inkscape="http://www.inkscape.org/namespaces/inkscape"
   version="1.0"
   width="512.000000pt"
   height="512.000000pt"
   viewBox="0 0 512.000000 512.000000"
   preserveAspectRatio="xMidYMid meet"
   id="svg6"
   sodipodi:docname="facebook.svg"
   inkscape:version="1.0.2 (e86c870879, 2021-01-15, custom)">
  <metadata
     id="metadata12">
    <rdf:RDF>
      <cc:Work
         rdf:about="">
        <dc:format>image/svg+xml</dc:format>
        <dc:type
           rdf:resource="http://purl.org/dc/dcmitype/StillImage" />
      </cc:Work>
    </rdf:RDF>
  </metadata>
  <defs
     id="defs10" />
  <sodipodi:namedview
     pagecolor="#ffffff"
     bordercolor="#666666"
     borderopacity="1"
     objecttolerance="10"
     gridtolerance="10"
     guidetolerance="10"
     inkscape:pageopacity="0"
     inkscape:pageshadow="2"
     inkscape:window-width="1920"
     inkscape:window-height="1017"
     id="namedview8"
     showgrid="false"
     inkscape:zoom="4.9804687"
     inkscape:cx="54.408616"
     inkscape:cy="57.832336"
     inkscape:window-x="-8"
     inkscape:window-y="-8"
     inkscape:window-maximized="1"
     inkscape:current-layer="svg6" />
  <g
     id="g857"
     transform="translate(-17.267971,6.131011)"
     inkscape:export-xdpi="96"
     inkscape:export-ydpi="96">
    <circle
       style="fill:#2764ff;stroke-width:0.871667"
       id="path837"
       cx="32.267982"
       cy="8.868989"
       r="15" />
    <g
       transform="matrix(0.00586815,0,0,-0.00587037,17.258276,23.898338)"
       fill="#000000"
       stroke="none"
       id="g852">
      <path
         d="M 2315,5109 C 1515,5026 814,4592 388,3913 -106,3127 -128,2103 332,1300 575,877 930,530 1349,306 1706,115 2100,10 2470,6 l 135,-1 3,993 2,992 h -275 -275 v 320 320 l 273,2 272,3 6,335 c 5,304 7,342 27,415 77,276 260,460 537,537 72,20 104,22 315,22 129,1 279,-3 333,-8 l 97,-8 v -288 -288 l -237,-4 c -237,-3 -238,-3 -290,-30 -110,-58 -123,-105 -123,-435 v -253 h 315 c 173,0 315,-3 315,-7 0,-5 -18,-145 -40,-312 -22,-168 -40,-308 -40,-313 0,-4 -124,-8 -275,-8 h -275 v -945 c 0,-520 2,-945 4,-945 19,0 257,90 347,131 301,138 534,304 774,550 209,215 338,400 471,674 118,244 199,516 236,795 16,124 16,509 0,625 -84,591 -328,1089 -733,1494 -397,396 -891,644 -1454,727 -123,18 -478,26 -600,13 z"
         id="path850" />
    </g>
  </g>
</svg>
