<?xml version="1.0" encoding="UTF-8" standalone="no"?>
<svg
   xmlns:dc="http://purl.org/dc/elements/1.1/"
   xmlns:cc="http://creativecommons.org/ns#"
   xmlns:rdf="http://www.w3.org/1999/02/22-rdf-syntax-ns#"
   xmlns:svg="http://www.w3.org/2000/svg"
   xmlns="http://www.w3.org/2000/svg"
   xmlns:xlink="http://www.w3.org/1999/xlink"
   xmlns:sodipodi="http://sodipodi.sourceforge.net/DTD/sodipodi-0.dtd"
   xmlns:inkscape="http://www.inkscape.org/namespaces/inkscape"
   version="1.0"
   width="640.000000pt"
   height="361.000000pt"
   viewBox="0 0 640.000000 361.000000"
   preserveAspectRatio="xMidYMid meet"
   id="svg8"
   sodipodi:docname="logomarca.svg"
   inkscape:export-filename="C:\Projetos\senai-versoes-colaboracoes\images\logomarca1.png"
   inkscape:export-xdpi="96"
   inkscape:export-ydpi="96"
   inkscape:version="1.0.2 (e86c870879, 2021-01-15, custom)">
  <metadata
     id="metadata14">
    <rdf:RDF>
      <cc:Work
         rdf:about="">
        <dc:format>image/svg+xml</dc:format>
        <dc:type
           rdf:resource="http://purl.org/dc/dcmitype/StillImage" />
      </cc:Work>
    </rdf:RDF>
  </metadata>
  <defs
     id="defs12">
    <linearGradient
       inkscape:collect="always"
       id="linearGradient2911">
      <stop
         style="stop-color:#700000;stop-opacity:1;"
         offset="0"
         id="stop2907" />
      <stop
         style="stop-color:#700000;stop-opacity:0;"
         offset="1"
         id="stop2909" />
    </linearGradient>
    <linearGradient
       inkscape:collect="always"
       xlink:href="#linearGradient2911"
       id="linearGradient2913"
       x1="177.75"
       y1="1806.0605"
       x2="6198.3152"
       y2="1806.0605"
       gradientUnits="userSpaceOnUse" />
  </defs>
  <sodipodi:namedview
     pagecolor="#ffffff"
     bordercolor="#666666"
     borderopacity="1"
     objecttolerance="10"
     gridtolerance="10"
     guidetolerance="10"
     inkscape:pageopacity="0"
     inkscape:pageshadow="2"
     inkscape:window-width="1920"
     inkscape:window-height="1017"
     id="namedview10"
     showgrid="false"
     inkscape:zoom="1.0639747"
     inkscape:cx="434.37457"
     inkscape:cy="278.41559"
     inkscape:window-x="-8"
     inkscape:window-y="-8"
     inkscape:window-maximized="1"
     inkscape:current-layer="g6"
     inkscape:document-rotation="0" />
  <g
     transform="translate(0.000000,361.000000) scale(0.100000,-0.100000)"
     fill="#000000"
     stroke="none"
     id="g6">
    <path
       d="M1075 3596 c-309 -60 -474 -254 -501 -590 l-7 -86 -36 0 c-45 0 -131 -40 -187 -85 -95 -78 -190 -238 -249 -420 -182 -555 -83 -1301 213 -1602 70 -71 164 -123 223 -123 l36 0 7 -86 c19 -230 111 -404 266 -504 111 -71 288 -107 480 -97 216 12 411 54 845 182 407 120 524 145 685 146 167 0 264 -31 359 -117 l51 -46 51 45 c174 152 403 158 875 21 87 -25 242 -69 344 -99 424 -122 697 -158 914 -120 309 54 480 258 503 598 6 97 6 98 37 114 182 92 329 380 393 768 24 153 24 467 0 620 -64 391 -210 675 -394 769 -31 15 -33 20 -33 66 0 208 -86 420 -212 520 -127 101 -248 135 -478 134 -248 -1 -435 -39 -965 -196 -314 -94 -435 -120 -589 -126 -191 -7 -287 21 -395 115 l-51 45 -51 -46 c-102 -92 -204 -121 -395 -114 -157 7 -271 31 -618 134 -313 93 -487 138 -641 164 -154 27 -385 35 -480 16z m485 -106 c140 -25 309 -69 580 -150 422 -127 566 -155 753 -148 142 5 233 32 317 92 l51 36 32 -24 c52 -39 132 -75 204 -92 93 -22 301 -14 442 16 98 20 166 39 628 173 333 97 563 134 758 124 181 -10 292 -52 385 -146 96 -98 139 -214 147 -407 l6 -121 53 -26 c67 -33 126 -86 174 -157 152 -224 231 -566 217 -935 -18 -450 -169 -816 -382 -926 l-65 -34 0 -87 c0 -223 -77 -401 -214 -494 -28 -19 -87 -47 -131 -61 -74 -25 -92 -27 -250 -27 -248 0 -393 29 -868 170 -438 131 -584 159 -775 152 -137 -6 -215 -28 -305 -88 l-58 -39 -54 38 c-30 21 -87 49 -127 62 -64 21 -92 24 -228 24 -181 0 -263 -15 -564 -102 -469 -136 -534 -154 -649 -177 -560 -114 -859 -10 -952 330 -9 32 -19 114 -22 180 l-6 121 -72 6 c-45 3 -88 13 -114 27 -162 82 -290 326 -353 670 -30 165 -30 505 0 670 63 345 190 586 354 671 32 17 60 23 114 23 l71 0 6 126 c8 173 41 281 116 379 60 80 186 147 319 171 77 15 335 3 462 -20z"
       id="path2"
       style="fill:#0067ff;fill-opacity:1" />
    <path
       d="M1150 3418 c-229 -17 -367 -141 -395 -353 -15 -120 -14 -128 15 -233 16 -58 27 -108 25 -110 -2 -3 -62 1 -133 8 -123 12 -130 11 -169 -9 -108 -55 -228 -278 -277 -516 -51 -247 -51 -553 0 -800 48 -233 161 -447 269 -510 44 -26 46 -27 180 -19 74 3 135 5 135 3 0 -2 -14 -49 -30 -103 -23 -80 -28 -112 -24 -160 12 -140 66 -271 133 -327 88 -73 186 -99 368 -99 219 0 389 35 879 179 320 94 465 128 615 143 130 14 262 1 366 -35 58 -20 67 -26 77 -57 14 -44 51 -64 93 -49 29 9 53 44 53 73 0 8 29 23 68 35 233 75 424 53 987 -114 338 -99 387 -112 528 -141 147 -30 419 -43 508 -25 211 44 328 201 329 439 0 63 -5 86 -35 153 -19 44 -35 82 -35 84 0 3 45 5 99 5 107 0 120 6 189 80 79 87 173 317 207 510 35 200 30 525 -11 725 -46 224 -148 431 -251 508 -33 24 -45 27 -115 27 -89 0 -87 -3 -63 95 30 126 12 297 -42 396 -77 143 -203 200 -442 200 -217 0 -417 -41 -851 -171 -372 -112 -599 -160 -753 -160 -129 0 -312 48 -323 84 -11 37 -35 56 -71 56 -34 0 -73 -28 -73 -54 0 -34 -204 -86 -334 -86 -155 1 -351 42 -731 155 -517 153 -730 191 -965 173z"
       id="path4"
       style="fill-opacity:1;fill:url(#linearGradient2913);opacity:1;stroke-width:0.9975;stroke-miterlimit:4;stroke-dasharray:none" />
  </g>
</svg>
